<?xml version="1.0" encoding="UTF-8"?>
<svg version="1.1" xmlns="http://www.w3.org/2000/svg" width="300" height="163">
<path d="M0 0 C13.67302562 -0.0231205 27.34604664 -0.04091359 41.01908779 -0.05181217 C47.36730576 -0.05704164 53.7155104 -0.06414044 60.0637207 -0.07543945 C66.18448582 -0.08626606 72.30523809 -0.09227635 78.42601204 -0.09487724 C80.76690943 -0.0967319 83.10780609 -0.10035329 85.44869804 -0.10573006 C88.71508202 -0.11293748 91.98141215 -0.11399107 95.24780273 -0.11352539 C96.226035 -0.11712067 97.20426727 -0.12071594 98.21214294 -0.12442017 C99.09700378 -0.1230455 99.98186462 -0.12167084 100.89353943 -0.12025452 C101.66692374 -0.12117631 102.44030806 -0.1220981 103.23712826 -0.12304783 C105 0 105 0 106 1 C106.08713831 2.70772358 106.10700007 4.41898649 106.09765625 6.12890625 C106.09282227 7.68061523 106.09282227 7.68061523 106.08789062 9.26367188 C106.07532227 10.8965918 106.07532227 10.8965918 106.0625 12.5625 C106.05798828 13.65498047 106.05347656 14.74746094 106.04882812 15.87304688 C106.03699826 18.58208495 106.02051543 21.29101599 106 24 C106.66 24 107.32 24 108 24 C108 16.08 108 8.16 108 0 C121.67302856 -0.02254844 135.34604488 -0.04091359 149.01908779 -0.05181217 C155.36730576 -0.05704164 161.7155104 -0.06414044 168.0637207 -0.07543945 C174.18448582 -0.08626606 180.30523809 -0.09227635 186.42601204 -0.09487724 C188.76690943 -0.0967319 191.10780609 -0.10035329 193.44869804 -0.10573006 C196.71508202 -0.11293748 199.98141215 -0.11399107 203.24780273 -0.11352539 C204.226035 -0.11712067 205.20426727 -0.12071594 206.21214294 -0.12442017 C207.09700378 -0.1230455 207.98186462 -0.12167084 208.89353943 -0.12025452 C209.66692374 -0.12117631 210.44030806 -0.1220981 211.23712826 -0.12304783 C213 0 213 0 214 1 C214.10039611 3.58100756 214.13617269 6.13527897 214.12939453 8.71679688 C214.13202301 9.92892601 214.13202301 9.92892601 214.13470459 11.1655426 C214.13912376 13.8499666 214.13618489 16.53432528 214.1328125 19.21875 C214.13348552 21.07580579 214.13445553 22.9328615 214.13571167 24.78991699 C214.13718873 28.68726437 214.13503382 32.58458887 214.13037109 36.48193359 C214.1246738 41.489345 214.12795276 46.49670281 214.13394356 51.50411224 C214.13754895 55.34039721 214.13641069 59.17666937 214.13381577 63.01295471 C214.13314644 64.85982774 214.13397513 66.70670192 214.13629532 68.55357361 C214.13882149 71.13014832 214.13498177 73.70663501 214.12939453 76.28320312 C214.13141876 77.0541481 214.13344299 77.82509308 214.13552856 78.61940002 C214.11426255 83.88573745 214.11426255 83.88573745 213 85 C211.34261557 85.09346915 209.68125356 85.11744977 208.02124023 85.11352539 C206.96021591 85.11344986 205.89919159 85.11337433 204.80601501 85.11329651 C203.651866 85.10813522 202.49771698 85.10297394 201.30859375 85.09765625 C200.13361832 85.0962413 198.95864288 85.09482635 197.74806213 85.09336853 C193.97784936 85.08774992 190.20769496 85.07519426 186.4375 85.0625 C183.88867273 85.0574874 181.33984453 85.05292408 178.79101562 85.04882812 C172.52732367 85.03777444 166.26366601 85.02101821 160 85 C160.01047363 85.68626465 160.02094727 86.3725293 160.03173828 87.07958984 C160.07321874 90.17802289 160.09930069 93.27639761 160.125 96.375 C160.14175781 97.45523438 160.15851563 98.53546875 160.17578125 99.6484375 C160.18222656 100.6796875 160.18867188 101.7109375 160.1953125 102.7734375 C160.20578613 103.72653809 160.21625977 104.67963867 160.22705078 105.66162109 C160 108 160 108 158 110 C156.14810848 110.24888897 156.14810848 110.24888897 153.85594177 110.24723816 C152.98797974 110.25143265 152.1200177 110.25562714 151.22575378 110.25994873 C149.79420708 110.25151947 149.79420708 110.25151947 148.33374023 110.24291992 C146.82878494 110.24576744 146.82878494 110.24576744 145.29342651 110.24867249 C141.96507035 110.25238818 138.63693063 110.24166544 135.30859375 110.23046875 C133.00456264 110.22927738 130.70053104 110.2288237 128.39649963 110.2290802 C123.56353727 110.227514 118.73064884 110.21921339 113.89770508 110.20581055 C107.68748452 110.18881102 101.47734524 110.18499639 95.26710415 110.18575573 C90.50864377 110.18548446 85.75020133 110.18001033 80.9917469 110.17275429 C78.70109251 110.1695613 76.41043608 110.16759875 74.11977959 110.16686058 C70.92543919 110.16470421 67.73118687 110.15597554 64.53686523 110.14526367 C63.58047653 110.14571686 62.62408783 110.14617004 61.63871765 110.14663696 C60.77357544 110.14237198 59.90843323 110.13810699 59.01707458 110.13371277 C57.8830176 110.131199 57.8830176 110.131199 56.72605038 110.12863445 C55 110 55 110 54 109 C53.91273777 107.21928754 53.89300959 105.4351686 53.90234375 103.65234375 C53.90556641 102.57275391 53.90878906 101.49316406 53.91210938 100.38085938 C53.92467773 98.67639648 53.92467773 98.67639648 53.9375 96.9375 C53.94201172 95.79732422 53.94652344 94.65714844 53.95117188 93.48242188 C53.96300253 90.65489649 53.9794859 87.8274736 54 85 C53.00734886 85.00333092 53.00734886 85.00333092 51.99464417 85.00672913 C45.1333978 85.02877965 38.27216143 85.04390562 31.41088867 85.05493164 C28.84708243 85.0599737 26.28327909 85.06680714 23.71948242 85.07543945 C20.04344979 85.08751064 16.36745502 85.09322942 12.69140625 85.09765625 C11.53725723 85.10281754 10.38310822 85.10797882 9.19398499 85.11329651 C8.13296066 85.11337204 7.07193634 85.11344757 5.97875977 85.11352539 C5.03944107 85.115746 4.10012238 85.11796661 3.13233948 85.12025452 C1 85 1 85 0 84 C-0.09509559 81.38311559 -0.12556 78.792711 -0.11352539 76.17553711 C-0.11367142 75.35609116 -0.11381744 74.5366452 -0.1139679 73.69236755 C-0.11326852 70.97066647 -0.10547501 68.24903295 -0.09765625 65.52734375 C-0.09579216 63.64547259 -0.09436821 61.76360094 -0.09336853 59.88172913 C-0.08954267 54.91851471 -0.07971181 49.95532936 -0.06866455 44.99212646 C-0.0584519 39.93160394 -0.05387122 34.87107673 -0.04882812 29.81054688 C-0.0380896 19.87368512 -0.02101236 9.93684497 0 0 Z M19 21 C18.8988308 24.09081465 18.86031442 27.15882555 18.8671875 30.25 C18.86623077 31.17844727 18.86527405 32.10689453 18.86428833 33.06347656 C18.86360645 35.03059965 18.86546128 36.99772496 18.86962891 38.96484375 C18.87497705 41.98703026 18.86968418 45.00906815 18.86328125 48.03125 C18.86394203 49.93750033 18.86522319 51.84375057 18.8671875 53.75 C18.86516327 54.66040039 18.86313904 55.57080078 18.86105347 56.50878906 C18.46108668 60.57663678 18.46108668 60.57663678 20 64 C22.52068181 64.08846834 25.01454417 64.11534524 27.53515625 64.09765625 C28.20252808 64.09664917 28.8698999 64.09564209 29.55749512 64.09460449 C32.0591808 64.08935808 34.56084206 64.07539691 37.0625 64.0625 C42.651875 64.041875 48.24125 64.02125 54 64 C54 51.13 54 38.26 54 25 C64.56 24.67 75.12 24.34 86 24 C85.505 22.02 85.505 22.02 85 20 C76.54232666 19.97687341 68.08466644 19.9590833 59.62696934 19.94818783 C55.70011342 19.94295969 51.77327906 19.93586331 47.84643555 19.92456055 C44.05985743 19.9137292 40.2733001 19.90772264 36.48670769 19.90512276 C35.03895681 19.90326895 33.59120712 19.89964919 32.14346504 19.89426994 C30.12242865 19.88705633 28.10137152 19.88659192 26.08032227 19.88647461 C24.92782486 19.884254 23.77532745 19.88203339 22.58790588 19.87974548 C20.06986853 19.70562405 20.06986853 19.70562405 19 21 Z M128 20 C127.67 21.32 127.34 22.64 127 24 C128.40076782 24.03758423 128.40076782 24.03758423 129.82983398 24.07592773 C133.28325189 24.17086928 136.7364896 24.27011258 140.18969727 24.37231445 C141.68639269 24.41571813 143.18313939 24.45738913 144.67993164 24.49731445 C146.82714312 24.55488616 148.97409521 24.61861716 151.12109375 24.68359375 C153.06133423 24.73858032 153.06133423 24.73858032 155.04077148 24.79467773 C158 25 158 25 159 26 C159.16017166 28.80976518 159.25950534 31.59773596 159.31640625 34.41015625 C159.33718735 35.25219101 159.35796844 36.09422577 159.37937927 36.96177673 C159.44496812 39.66193179 159.50380276 42.36218717 159.5625 45.0625 C159.60567637 46.88868241 159.64929036 48.71485454 159.69335938 50.54101562 C159.8014858 55.02724226 159.90048911 59.51354074 160 64 C171.22 64 182.44 64 194 64 C194 49.48 194 34.96 194 20 C172.22 20 150.44 20 128 20 Z M73 46 C72.91368126 47.34267413 72.89293527 48.68974322 72.90234375 50.03515625 C72.90556641 50.84404297 72.90878906 51.65292969 72.91210938 52.48632812 C72.92048828 53.33646484 72.92886719 54.18660156 72.9375 55.0625 C72.94201172 55.91650391 72.94652344 56.77050781 72.95117188 57.65039062 C72.96299627 59.76695663 72.98093231 61.88348685 73 64 C77.29 64 81.58 64 86 64 C86 57.73 86 51.46 86 45 C84.040625 44.979375 82.08125 44.95875 80.0625 44.9375 C78.40927734 44.92009766 78.40927734 44.92009766 76.72265625 44.90234375 C74.08552366 44.68737429 74.08552366 44.68737429 73 46 Z M106 45 C105.96241577 46.71884399 105.96241577 46.71884399 105.92407227 48.47241211 C105.83016894 52.70853598 105.72990725 56.94448928 105.62768555 61.18041992 C105.5842718 63.01664247 105.54260161 64.85290708 105.50268555 66.68920898 C105.44513831 69.32288311 105.38140002 71.95634421 105.31640625 74.58984375 C105.29133751 75.82890724 105.29133751 75.82890724 105.26576233 77.09300232 C105.11387171 82.88612829 105.11387171 82.88612829 104 84 C101.71011219 84.15888092 99.41556559 84.25138073 97.12109375 84.31640625 C96.4344313 84.33718735 95.74776886 84.35796844 95.04029846 84.37937927 C92.83947065 84.44494143 90.63852025 84.50379015 88.4375 84.5625 C86.94855486 84.60567892 85.45962227 84.649293 83.97070312 84.69335938 C80.31393447 84.8006293 76.65702682 84.90187772 73 85 C73.33 86.32 73.66 87.64 74 89 C95.78 89 117.56 89 140 89 C140 87.68 140 86.36 140 85 C129.77 84.67 119.54 84.34 109 84 C108.67 71.13 108.34 58.26 108 45 C107.34 45 106.68 45 106 45 Z M127 45 C126.97316013 47.97922593 126.95323963 50.95821295 126.9375 53.9375 C126.92912109 54.78763672 126.92074219 55.63777344 126.91210938 56.51367188 C126.90888672 57.32255859 126.90566406 58.13144531 126.90234375 58.96484375 C126.89710693 59.7137085 126.89187012 60.46257324 126.88647461 61.23413086 C126.80658248 63.02667739 126.80658248 63.02667739 128 64 C130.01964199 64.07244053 132.04167124 64.08377188 134.0625 64.0625 C136.021875 64.041875 137.98125 64.02125 140 64 C140 57.73 140 51.46 140 45 C135.71 45 131.42 45 127 45 Z " fill="#334B73" transform="translate(44,10)"/>
<path d="M0 0 C1.36916565 0.00539291 1.36916565 0.00539291 2.76599121 0.01089478 C3.72198715 0.01074875 4.67798309 0.01060272 5.66294861 0.01045227 C8.83916452 0.01115181 12.01532259 0.01894614 15.19152832 0.02676392 C17.387283 0.02862795 19.58303809 0.03005192 21.77879333 0.03105164 C27.5705784 0.03487798 33.36233857 0.04470926 39.15411377 0.05575562 C45.05915998 0.06596724 50.9642102 0.07054872 56.8692627 0.07559204 C68.46497855 0.08633142 80.06066935 0.10392916 91.65637207 0.12442017 C91.65637207 7.38442017 91.65637207 14.64442017 91.65637207 22.12442017 C87.69637207 22.12442017 83.73637207 22.12442017 79.65637207 22.12442017 C79.16137207 18.65942017 79.16137207 18.65942017 78.65637207 15.12442017 C54.56637207 14.79442017 30.47637207 14.46442017 5.65637207 14.12442017 C5.65637207 30.62442017 5.65637207 47.12442017 5.65637207 64.12442017 C30.07637207 64.12442017 54.49637207 64.12442017 79.65637207 64.12442017 C79.65637207 56.86442017 79.65637207 49.60442017 79.65637207 42.12442017 C83.61637207 42.12442017 87.57637207 42.12442017 91.65637207 42.12442017 C91.65637207 54.00442017 91.65637207 65.88442017 91.65637207 78.12442017 C58.98637207 78.12442017 26.31637207 78.12442017 -7.34362793 78.12442017 C-7.36425293 65.44004517 -7.38487793 52.75567017 -7.40612793 39.68692017 C-7.41523193 35.67608276 -7.42433594 31.66524536 -7.43371582 27.53286743 C-7.43823242 22.64968872 -7.43823242 22.64968872 -7.43907166 20.36647034 C-7.44061113 18.76567813 -7.44413614 17.1648871 -7.44920349 15.56410217 C-7.45648154 13.14481581 -7.45753533 10.72560054 -7.45715332 8.30630493 C-7.46075143 7.58853913 -7.46434954 6.87077333 -7.46805668 6.13125706 C-7.45406381 -0.45033705 -6.43738569 0.01071387 0 0 Z " fill="#FAFAFB" transform="translate(54.3436279296875,12.875579833984375)"/>
<path d="M0 0 C1.36916565 0.00539291 1.36916565 0.00539291 2.76599121 0.01089478 C3.72198715 0.01074875 4.67798309 0.01060272 5.66294861 0.01045227 C8.83916452 0.01115181 12.01532259 0.01894614 15.19152832 0.02676392 C17.387283 0.02862795 19.58303809 0.03005192 21.77879333 0.03105164 C27.5705784 0.03487798 33.36233857 0.04470926 39.15411377 0.05575562 C46.0965651 0.06776122 53.03902473 0.07237142 59.98148346 0.07820892 C70.539797 0.08792095 81.09805587 0.1070767 91.65637207 0.12442017 C91.65637207 25.86442017 91.65637207 51.60442017 91.65637207 78.12442017 C67.23902025 78.16452898 67.23902025 78.16452898 56.8692627 78.17324829 C49.7801438 78.17923724 42.69103776 78.18633892 35.60192871 78.19985962 C29.88964636 78.21068678 24.17737779 78.21669663 18.46508598 78.21929741 C16.2804893 78.22115197 14.09589342 78.22477316 11.91130257 78.23015022 C8.86284858 78.23735838 5.81445228 78.2384112 2.76599121 78.23794556 C1.39682556 78.24333847 1.39682556 78.24333847 0 78.24884033 C-6.22957577 78.23847233 -6.22957577 78.23847233 -7.34362793 77.12442017 C-7.43214322 74.53082695 -7.45888738 71.96402325 -7.44128418 69.37051392 C-7.43916176 68.20734398 -7.43916176 68.20734398 -7.43699646 67.02067566 C-7.43138138 64.53438522 -7.41882639 62.04818356 -7.40612793 59.56192017 C-7.40111487 57.88028084 -7.39655163 56.1986401 -7.39245605 54.51699829 C-7.38140706 50.38610451 -7.36413238 46.25527741 -7.34362793 42.12442017 C-3.05362793 42.12442017 1.23637207 42.12442017 5.65637207 42.12442017 C5.65637207 49.38442017 5.65637207 56.64442017 5.65637207 64.12442017 C29.74637207 63.79442017 53.83637207 63.46442017 78.65637207 63.12442017 C78.65637207 47.28442017 78.65637207 31.44442017 78.65637207 15.12442017 C54.56637207 14.79442017 30.47637207 14.46442017 5.65637207 14.12442017 C5.65637207 16.76442017 5.65637207 19.40442017 5.65637207 22.12442017 C1.36637207 22.12442017 -2.92362793 22.12442017 -7.34362793 22.12442017 C-7.37045994 18.64520281 -7.39038463 15.16618978 -7.40612793 11.68692017 C-7.41450684 10.69369751 -7.42288574 9.70047485 -7.43151855 8.67715454 C-7.43474121 7.73291626 -7.43796387 6.78867798 -7.44128418 5.81582642 C-7.446521 4.94127808 -7.45175781 4.06672974 -7.45715332 3.16567993 C-7.20699329 -1.33235889 -3.69545533 0.00615042 0 0 Z " fill="#FAFBFC" transform="translate(162.3436279296875,12.875579833984375)"/>
<path d="M0 0 C1.36916565 0.00539291 1.36916565 0.00539291 2.76599121 0.01089478 C3.72198715 0.01074875 4.67798309 0.01060272 5.66294861 0.01045227 C8.83916452 0.01115181 12.01532259 0.01894614 15.19152832 0.02676392 C17.387283 0.02862795 19.58303809 0.03005192 21.77879333 0.03105164 C27.5705784 0.03487798 33.36233857 0.04470926 39.15411377 0.05575562 C45.05915998 0.06596724 50.9642102 0.07054872 56.8692627 0.07559204 C68.46497855 0.08633142 80.06066935 0.10392916 91.65637207 0.12442017 C91.65637207 12.33442017 91.65637207 24.54442017 91.65637207 37.12442017 C87.69637207 37.12442017 83.73637207 37.12442017 79.65637207 37.12442017 C79.32637207 29.86442017 78.99637207 22.60442017 78.65637207 15.12442017 C54.56637207 14.79442017 30.47637207 14.46442017 5.65637207 14.12442017 C5.65637207 21.71442017 5.65637207 29.30442017 5.65637207 37.12442017 C1.36637207 37.12442017 -2.92362793 37.12442017 -7.34362793 37.12442017 C-7.36827803 32.01578121 -7.386464 26.90717658 -7.39855957 21.79849243 C-7.40359997 20.05922849 -7.41043223 18.3199688 -7.41906738 16.58071899 C-7.43114585 14.0861608 -7.43685901 11.59165843 -7.44128418 9.09707642 C-7.44644547 8.31478165 -7.45160675 7.53248688 -7.45692444 6.72648621 C-7.45712019 4.85874902 -7.40562487 2.99112812 -7.34362793 1.12442017 C-5.42216019 -0.79704757 -2.55644478 0.00425474 0 0 Z " fill="#C5AB4B" transform="translate(108.3436279296875,37.875579833984375)"/>
<path d="M0 0 C4.29 0 8.58 0 13 0 C13 2.64 13 5.28 13 8 C37.09 7.67 61.18 7.34 86 7 C86.33 4.69 86.66 2.38 87 0 C90.96 0 94.92 0 99 0 C99 7.26 99 14.52 99 22 C86.23965815 22.02254906 73.47932943 22.04091395 60.71897221 22.05181217 C54.79449285 22.05704149 48.87002778 22.06414001 42.94555664 22.07543945 C37.23327429 22.08626661 31.52100572 22.09227647 25.80871391 22.09487724 C23.62411723 22.0967318 21.43952135 22.100353 19.2549305 22.10573006 C16.20647651 22.11293821 13.15808021 22.11399104 10.10961914 22.11352539 C8.74045349 22.1189183 8.74045349 22.1189183 7.34362793 22.12442017 C1.11405216 22.11405216 1.11405216 22.11405216 0 21 C-0.08685603 19.43827255 -0.10702219 17.87270656 -0.09765625 16.30859375 C-0.09443359 15.36435547 -0.09121094 14.42011719 -0.08789062 13.44726562 C-0.07951172 12.45404297 -0.07113281 11.46082031 -0.0625 10.4375 C-0.05798828 9.44041016 -0.05347656 8.44332031 -0.04882812 7.41601562 C-0.03700023 4.94398513 -0.01906415 2.47198528 0 0 Z " fill="#C5AB4A" transform="translate(101,94)"/>
<path d="M0 0 C0.66 0 1.32 0 2 0 C2.83986084 1.93467942 3.67168027 3.87285129 4.5 5.8125 C4.9640625 6.89144531 5.428125 7.97039062 5.90625 9.08203125 C7 12 7 12 7 15 C7.99 15 8.98 15 10 15 C9.67 10.38 9.34 5.76 9 1 C18.03954802 0.39736347 18.03954802 0.39736347 22.1875 3 C24.31447149 6.52050453 24.33075523 8.18298324 23.78515625 12.1328125 C22.63769196 14.86160819 21.65532186 15.640977 19 17 C16.07220325 17.35447825 13.19349793 17.28268774 10.25 17.1875 C9.45722656 17.17396484 8.66445313 17.16042969 7.84765625 17.14648438 C5.89814436 17.11125223 3.94898374 17.05744821 2 17 C2.33 15.35 2.66 13.7 3 12 C1.35 12 -0.3 12 -2 12 C-1.67 13.65 -1.34 15.3 -1 17 C-4.37885612 17.28526928 -7.63291991 17.46087248 -11 17 C-13.125 14.5 -13.125 14.5 -14 12 C-14 13.65 -14 15.3 -14 17 C-15.98 17 -17.96 17 -20 17 C-19.505 15.515 -19.505 15.515 -19 14 C-18.77820215 12.10787263 -18.59385985 10.21115528 -18.4375 8.3125 C-18.35371094 7.31863281 -18.26992188 6.32476562 -18.18359375 5.30078125 C-18.12300781 4.54152344 -18.06242187 3.78226563 -18 3 C-18.66 3 -19.32 3 -20 3 C-20 2.34 -20 1.68 -20 1 C-18.37509046 0.97301811 -16.75005367 0.95361243 -15.125 0.9375 C-14.22007813 0.92589844 -13.31515625 0.91429687 -12.3828125 0.90234375 C-10 1 -10 1 -8 2 C-8 4.31 -8 6.62 -8 9 C-8.66 9 -9.32 9 -10 9 C-9.34 10.98 -8.68 12.96 -8 15 C-7.01 15 -6.02 15 -5 15 C-4.70996094 14.00419922 -4.70996094 14.00419922 -4.4140625 12.98828125 C-1.82776801 4.21792619 -1.82776801 4.21792619 0 0 Z M-15 3 C-15 4.65 -15 6.3 -15 8 C-13.68 7.67 -12.36 7.34 -11 7 C-11.33 5.68 -11.66 4.36 -12 3 C-12.99 3 -13.98 3 -15 3 Z M14 3 C12.71387324 4.05978933 12.71387324 4.05978933 12.90234375 6.50390625 C12.91394531 7.51324219 12.92554688 8.52257812 12.9375 9.5625 C12.94652344 10.57441406 12.95554688 11.58632812 12.96484375 12.62890625 C12.97644531 13.41136719 12.98804688 14.19382813 13 15 C16.93075644 14.42547254 16.93075644 14.42547254 20 12 C20.45691513 7.80521925 20.45691513 7.80521925 18.6875 4.125 C16.92199528 2.7226499 16.92199528 2.7226499 14 3 Z M0 6 C-0.33 7.32 -0.66 8.64 -1 10 C-0.01 9.67 0.98 9.34 2 9 C1.34 8.01 0.68 7.02 0 6 Z " fill="#2F4872" transform="translate(26,138)"/>
<path d="M0 0 C0.66 0 1.32 0 2 0 C2.83739781 2.1234016 3.66980283 4.2487728 4.5 6.375 C4.9640625 7.55835938 5.428125 8.74171875 5.90625 9.9609375 C7 13 7 13 7 15 C7.66 14.67 8.32 14.34 9 14 C9.4683265 11.41394668 9.4683265 11.41394668 9.625 8.4375 C9.69976562 7.42558594 9.77453125 6.41367188 9.8515625 5.37109375 C9.90054688 4.58863281 9.94953125 3.80617187 10 3 C9.34 3 8.68 3 8 3 C8 2.34 8 1.68 8 1 C9.79093191 0.91913853 11.58289628 0.86087298 13.375 0.8125 C14.87160156 0.76029297 14.87160156 0.76029297 16.3984375 0.70703125 C17.25695312 0.80371094 18.11546875 0.90039062 19 1 C21 4 21 4 20.625 6.4375 C20.315625 7.7059375 20.315625 7.7059375 20 9 C20 12.76687864 20.23537317 13.91190305 22 17 C18.75791433 16.64950425 17.38472296 16.43778819 15.1875 13.9375 C14.795625 13.298125 14.40375 12.65875 14 12 C13.67 12.99 13.34 13.98 13 15 C13.66 15 14.32 15 15 15 C15 15.66 15 16.32 15 17 C10.71 17 6.42 17 2 17 C2 15.68 2 14.36 2 13 C0.68 12.67 -0.64 12.34 -2 12 C-2 13.65 -2 15.3 -2 17 C-3.65 17 -5.3 17 -7 17 C-5.49637741 13.21283842 -3.94512999 9.44754813 -2.375 5.6875 C-1.92898437 4.61886719 -1.48296875 3.55023438 -1.0234375 2.44921875 C-0.68570313 1.64097656 -0.34796875 0.83273438 0 0 Z M13 3 C13 4.65 13 6.3 13 8 C14.32 7.67 15.64 7.34 17 7 C16.67 5.68 16.34 4.36 16 3 C15.01 3 14.02 3 13 3 Z M0 7 C-0.33 7.99 -0.66 8.98 -1 10 C-0.34 10 0.32 10 1 10 C0.67 9.01 0.34 8.02 0 7 Z " fill="#2F4872" transform="translate(56,138)"/>
<path d="M0 0 C1.98 0 3.96 0 6 0 C5.67 0.99 5.34 1.98 5 3 C4.77820215 4.89212737 4.59385985 6.78884472 4.4375 8.6875 C4.35371094 9.68136719 4.26992187 10.67523438 4.18359375 11.69921875 C4.12300781 12.45847656 4.06242187 13.21773437 4 14 C7.72614153 12.88145414 7.72614153 12.88145414 10 10 C10.66 10 11.32 10 12 10 C12.33 10.99 12.66 11.98 13 13 C13.33 9.37 13.66 5.74 14 2 C13.34 2 12.68 2 12 2 C12 1.34 12 0.68 12 0 C21.89914663 -0.61442979 21.89914663 -0.61442979 25.6875 1.5 C27.24641565 4.46936314 27.51894417 6.68820078 27.62890625 10 C26.56261577 13.3909362 25.10024947 14.27424537 22 16 C18.21536577 16.48125273 14.49459358 16.37665954 10.6875 16.25 C9.14739258 16.22292969 9.14739258 16.22292969 7.57617188 16.1953125 C5.05037929 16.14832101 2.52506863 16.07658169 0 16 C0 10.72 0 5.44 0 0 Z M17 2 C17 5.96 17 9.92 17 14 C18.65 13.67 20.3 13.34 22 13 C24.33296251 10.17282787 24.33296251 10.17282787 23.75 6.9375 C23.2406756 3.900541 23.2406756 3.900541 21 2 C19.68 2 18.36 2 17 2 Z " fill="#2F4872" transform="translate(118,139)"/>
<path d="M0 0 C1.65 0 3.3 0 5 0 C6.65 2.97 8.3 5.94 10 9 C11.32 6.03 12.64 3.06 14 0 C15.65 0 17.3 0 19 0 C18.814375 0.78375 18.62875 1.5675 18.4375 2.375 C17.87456309 7.03933441 18.40392396 11.35977729 19 16 C17.02 16 15.04 16 13 16 C13.33 14.02 13.66 12.04 14 10 C13.01 11.98 12.02 13.96 11 16 C9.125 15.8125 9.125 15.8125 7 15 C5.75 12.4375 5.75 12.4375 5 10 C5 11.98 5 13.96 5 16 C3.35 16 1.7 16 0 16 C0.66 11.38 1.32 6.76 2 2 C1.34 2 0.68 2 0 2 C0 1.34 0 0.68 0 0 Z " fill="#2F4872" transform="translate(225,139)"/>
<path d="M0 0 C6.93 0 13.86 0 21 0 C21 1.65 21 3.3 21 5 C20.34 5 19.68 5 19 5 C18.01 4.01 17.02 3.02 16 2 C16 5.96 16 9.92 16 14 C16.66 14 17.32 14 18 14 C18 14.66 18 15.32 18 16 C15.69 16 13.38 16 11 16 C11.33 15.01 11.66 14.02 12 13 C12.22179785 11.10787263 12.40614015 9.21115528 12.5625 7.3125 C12.64628906 6.31863281 12.73007812 5.32476562 12.81640625 4.30078125 C12.87699219 3.54152344 12.93757813 2.78226563 13 2 C12.01 2 11.02 2 10 2 C9.67 2.99 9.34 3.98 9 5 C8.34 5 7.68 5 7 5 C7 4.01 7 3.02 7 2 C6.34 2 5.68 2 5 2 C5 5.96 5 9.92 5 14 C5.66 14 6.32 14 7 14 C7 14.66 7 15.32 7 16 C4.69 16 2.38 16 0 16 C0 15.34 0 14.68 0 14 C0.66 14 1.32 14 2 14 C2 10.04 2 6.08 2 2 C1.34 2 0.68 2 0 2 C0 1.34 0 0.68 0 0 Z " fill="#2F4872" transform="translate(245,139)"/>
<path d="M0 0 C1.98 0 3.96 0 6 0 C5.67 2.31 5.34 4.62 5 7 C6.98 7 8.96 7 11 7 C11 5.35 11 3.7 11 2 C10.34 2 9.68 2 9 2 C9 1.34 9 0.68 9 0 C11.31 0 13.62 0 16 0 C16 0.66 16 1.32 16 2 C15.34 2 14.68 2 14 2 C14 5.96 14 9.92 14 14 C14.66 14 15.32 14 16 14 C16 14.66 16 15.32 16 16 C13.69 16 11.38 16 9 16 C9 15.34 9 14.68 9 14 C9.66 14 10.32 14 11 14 C11 12.35 11 10.7 11 9 C9.02 9 7.04 9 5 9 C5.33 11.31 5.66 13.62 6 16 C4.02 16 2.04 16 0 16 C0 10.72 0 5.44 0 0 Z " fill="#2F4872" transform="translate(84,139)"/>
<path d="M0 0 C5.625 1.125 5.625 1.125 8.3125 5.0625 C8.82425781 5.79597656 9.33601562 6.52945313 9.86328125 7.28515625 C10.23839844 7.85105469 10.61351562 8.41695312 11 9 C11.33 6.69 11.66 4.38 12 2 C11.34 2 10.68 2 10 2 C10 1.34 10 0.68 10 0 C11.65 0 13.3 0 15 0 C14.67 5.28 14.34 10.56 14 16 C9.77000325 14.94250081 9.45069644 14.79967512 7.25 11.4375 C6.82203125 10.79683594 6.3940625 10.15617188 5.953125 9.49609375 C5.63859375 9.00238281 5.3240625 8.50867188 5 8 C5 10.64 5 13.28 5 16 C3.35 16 1.7 16 0 16 C0 10.72 0 5.44 0 0 Z " fill="#2F4872" transform="translate(154,139)"/>
<path d="M0 0 C2.4375 2.0625 2.4375 2.0625 4 5 C4.22026068 8.53105397 3.89108388 11.80098805 1.72265625 14.71875 C-0.47438457 16.35283025 -1.7828397 16.4021716 -4.5 16.375 C-5.2734375 16.38273437 -6.046875 16.39046875 -6.84375 16.3984375 C-9.56076438 15.89638049 -10.42836389 15.26355138 -12 13 C-12.3984375 10.625 -12.3984375 10.625 -12.375 8 C-12.38273437 7.13375 -12.39046875 6.2675 -12.3984375 5.375 C-11.92457097 2.55038385 -11.26470045 1.70118344 -9 0 C-5.39297148 -1.20234284 -3.64185324 -1.0405295 0 0 Z M-7 2 C-9.37222995 4.89579382 -9.37222995 4.89579382 -8.75 8.5625 C-8.3141556 12.04592612 -8.3141556 12.04592612 -6 14 C-3.42459787 13.83492354 -3.42459787 13.83492354 -1 13 C0.38550197 10.22899606 0.1877467 8.0665294 0 5 C-0.66 4.01 -1.32 3.02 -2 2 C-4.5 1.5 -4.5 1.5 -7 2 Z " fill="#2F4872" transform="translate(113,139)"/>
<path d="M0 0 C0 1.98 0 3.96 0 6 C-0.66 6 -1.32 6 -2 6 C-2.33 5.01 -2.66 4.02 -3 3 C-4.66611905 2.957279 -6.33382885 2.95936168 -8 3 C-9.23267348 4.00836062 -9.23267348 4.00836062 -9.09765625 6.06640625 C-9.08605469 6.89011719 -9.07445312 7.71382812 -9.0625 8.5625 C-9.05347656 9.38878906 -9.04445312 10.21507812 -9.03515625 11.06640625 C-9.02355469 11.70449219 -9.01195312 12.34257812 -9 13 C-6.03 13.495 -6.03 13.495 -3 14 C-3.33 12.02 -3.66 10.04 -4 8 C-2.02 8 -0.04 8 2 8 C1.67 10.31 1.34 12.62 1 15 C-2.71240082 16.23746694 -6.14174065 16.54341681 -10 16 C-12.5 14.4375 -12.5 14.4375 -14 12 C-14.43949492 7.89804745 -14.60756392 4.35258219 -12 1 C-7.85025191 -1.48984886 -4.62885021 -0.90761769 0 0 Z " fill="#2F4872" transform="translate(184,139)"/>
<path d="M0 0 C1.7492214 -0.08142927 3.49954542 -0.13938541 5.25 -0.1875 C6.22453125 -0.22230469 7.1990625 -0.25710937 8.203125 -0.29296875 C11.4237925 0.04439167 12.71067368 0.7475983 15 3 C16.00917654 6.31586579 16.15374823 8.38500707 15.3125 11.75 C13.75064415 14.42746717 12.85530733 14.89760308 10 16 C7.421875 16.1953125 7.421875 16.1953125 4.75 16.125 C3.85796875 16.10695312 2.9659375 16.08890625 2.046875 16.0703125 C1.37140625 16.04710937 0.6959375 16.02390625 0 16 C0 15.34 0 14.68 0 14 C0.66 14 1.32 14 2 14 C2 10.04 2 6.08 2 2 C1.34 2 0.68 2 0 2 C0 1.34 0 0.68 0 0 Z M5 2 C5 5.96 5 9.92 5 14 C6.65 13.67 8.3 13.34 10 13 C12.15502531 9.76746204 12.46856135 8.74849077 12 5 C10.85353452 3.10338257 10.85353452 3.10338257 9 2 C7.68 2 6.36 2 5 2 Z " fill="#2F4872" transform="translate(280,139)"/>
<path d="M0 0 C3.63 0 7.26 0 11 0 C11.33 1.65 11.66 3.3 12 5 C11.01 4.67 10.02 4.34 9 4 C9 3.34 9 2.68 9 2 C7.68 2 6.36 2 5 2 C5 3.65 5 5.3 5 7 C5.66 7 6.32 7 7 7 C7 6.34 7 5.68 7 5 C7.66 5 8.32 5 9 5 C9 6.65 9 8.3 9 10 C7.68 9.67 6.36 9.34 5 9 C5 10.65 5 12.3 5 14 C6.97536745 13.65213292 6.97536745 13.65213292 9 13 C9.33 12.34 9.66 11.68 10 11 C10.66 11 11.32 11 12 11 C12 12.65 12 14.3 12 16 C8.04 16 4.08 16 0 16 C0 10.72 0 5.44 0 0 Z " fill="#2F4872" transform="translate(267,139)"/>
<path d="M0 0 C0 1.65 0 3.3 0 5 C-0.66 5 -1.32 5 -2 5 C-2.33 4.34 -2.66 3.68 -3 3 C-5.02463255 2.34786708 -5.02463255 2.34786708 -7 2 C-7 2.99 -7 3.98 -7 5 C-6.05125 5.28875 -5.1025 5.5775 -4.125 5.875 C-1 7 -1 7 1 9 C1.25 11.5 1.25 11.5 1 14 C-1 16 -1 16 -3.1640625 16.1953125 C-3.97617188 16.17210937 -4.78828125 16.14890625 -5.625 16.125 C-6.44226563 16.10695312 -7.25953125 16.08890625 -8.1015625 16.0703125 C-8.72804687 16.04710937 -9.35453125 16.02390625 -10 16 C-10 14.02 -10 12.04 -10 10 C-9.34 10 -8.68 10 -8 10 C-7.01 11.485 -7.01 11.485 -6 13 C-5.01 13 -4.02 13 -3 13 C-3 12.34 -3 11.68 -3 11 C-6.465 9.02 -6.465 9.02 -10 7 C-10 5.02 -10 3.04 -10 1 C-6.42181037 -1.33958553 -4.07775191 -0.9267618 0 0 Z " fill="#2F4872" transform="translate(197,139)"/>
<path d="M0 0 C1.98 0 3.96 0 6 0 C5.67 4.62 5.34 9.24 5 14 C6.32 13.67 7.64 13.34 9 13 C9.33 12.01 9.66 11.02 10 10 C10.66 10 11.32 10 12 10 C12 11.98 12 13.96 12 16 C8.04 16 4.08 16 0 16 C0 10.72 0 5.44 0 0 Z " fill="#2F4872" transform="translate(205,139)"/>
<path d="M0 0 C2.31 0 4.62 0 7 0 C7 0.66 7 1.32 7 2 C6.34 2 5.68 2 5 2 C5 5.96 5 9.92 5 14 C5.66 14 6.32 14 7 14 C7 14.66 7 15.32 7 16 C4.69 16 2.38 16 0 16 C0.33 15.01 0.66 14.02 1 13 C1.22179785 11.10787263 1.40614015 9.21115528 1.5625 7.3125 C1.64628906 6.31863281 1.73007813 5.32476562 1.81640625 4.30078125 C1.87699219 3.54152344 1.93757812 2.78226563 2 2 C1.34 2 0.68 2 0 2 C0 1.34 0 0.68 0 0 Z " fill="#2F4872" transform="translate(146,139)"/>
<path d="M0 0 C1.98 0 3.96 0 6 0 C5.67 0.99 5.34 1.98 5 3 C4.77820215 4.89212737 4.59385985 6.78884472 4.4375 8.6875 C4.35371094 9.68136719 4.26992187 10.67523438 4.18359375 11.69921875 C4.12300781 12.45847656 4.06242188 13.21773437 4 14 C4.66 14 5.32 14 6 14 C6 14.66 6 15.32 6 16 C4.02 16 2.04 16 0 16 C0 10.72 0 5.44 0 0 Z " fill="#2F4872" transform="translate(218,139)"/>
</svg>
